<svg id="Capa_1" data-name="Capa 1" xmlns="http://www.w3.org/2000/svg" viewBox="0 0 1080 581.76"><defs><style>.cls-1{fill:#7d61f1;}.cls-2{fill:#72caf7;}</style></defs><path class="cls-1" d="M189,320.59,180,300H144.25l-32.18,82.24H138l23.69-62.13Z"/><polygon class="cls-2" points="177.78 222.7 237.67 382.72 264.49 382.72 201.91 222.7 177.78 222.7"/><path class="cls-2" d="M877.3,320.59,868.36,300H832.6l-32.18,82.24h25.92L850,320.14Z"/><polygon class="cls-1" points="866.12 222.7 926.02 382.72 952.84 382.72 890.26 222.7 866.12 222.7"/><path class="cls-1" d="M361,362.16V290.64H336.9v92.08h60.79s63.47,5.36,73.3-60.79-21.45-99.23-79.56-99.23H336.9v21.46h49.17s58.1-4.47,61.68,42S448.64,369.31,361,362.16Z"/><rect class="cls-2" x="544.74" y="223.15" width="25.92" height="160.02"/><path class="cls-1" d="M644.42,299.58v83.14h23.24V320.14h41.13s57.21,5.37,58.1-43.8S735.6,224.49,715,223.6s-71.51,0-71.51,0v20.56l59-.9s43.06-2.67,40.23,30.4C740.07,305,707,299.58,696.27,299.58Z"/></svg>